<svg width="226" height="236" viewBox="0 0 226 236" fill="none" xmlns="http://www.w3.org/2000/svg">
<g clip-path="url(#clip0_879_502)">
<path d="M113.011 113.307C144.215 113.307 169.511 88.0071 169.511 56.7984C169.511 25.5897 144.215 0.290039 113.011 0.290039C81.8067 0.290039 56.5107 25.5897 56.5107 56.7984C56.5107 88.0071 81.8067 113.307 113.011 113.307Z" fill="#C9CC1F"/>
<path d="M56.5 0.290039V113.317C41.6491 113.112 27.4759 107.068 17.0465 96.4918C6.61715 85.9157 0.77002 71.6583 0.77002 56.8038C0.77002 41.9492 6.61715 27.6918 17.0465 17.1158C27.4759 6.5397 41.6491 0.495281 56.5 0.290039Z" fill="#C9CC1F"/>
<path d="M226 56.7984C226.003 64.2196 224.544 71.5686 221.706 78.4257C218.869 85.2828 214.708 91.5136 209.462 96.7621C204.216 102.011 197.988 106.174 191.133 109.015C184.278 111.855 176.931 113.317 169.511 113.317V0.290039C176.93 0.290039 184.276 1.75175 191.131 4.59169C197.985 7.43163 204.213 11.5942 209.458 16.8416C214.704 22.089 218.865 28.3185 221.703 35.1744C224.541 42.0302 226.001 49.3781 226 56.7984Z" fill="#C9CC1F"/>
<path d="M226 184.123V235.29H0V184.123C0.00286033 169.137 5.95644 154.765 16.5516 144.168C27.1468 133.572 41.5161 127.617 56.5 127.614V184.134C56.3966 176.646 57.7817 169.213 60.5749 162.266C63.3682 155.319 67.5139 148.996 72.7711 143.665C78.0284 138.333 84.2925 134.1 91.1994 131.211C98.1064 128.321 105.519 126.833 113.005 126.833C120.492 126.833 127.904 128.321 134.811 131.211C141.718 134.1 147.982 138.333 153.24 143.665C158.497 148.996 162.643 155.319 165.436 162.266C168.229 169.213 169.614 176.646 169.511 184.134V127.614C176.93 127.614 184.276 129.076 191.131 131.916C197.985 134.756 204.213 138.919 209.459 144.166C214.704 149.413 218.865 155.643 221.703 162.499C224.541 169.355 226.001 176.702 226 184.123Z" fill="#C9CC1F"/>
</g>
<defs>
<clipPath id="clip0_879_502">
<rect width="226" height="235" fill="white" transform="translate(0 0.290039)"/>
</clipPath>
</defs>
</svg>
