<svg width="119" height="121" viewBox="0 0 119 121" fill="none" xmlns="http://www.w3.org/2000/svg">
<path d="M80.2489 120.881L-0.00341797 100.601V31.3088L80.2489 51.5896V120.881Z" fill="#877DC5"/>
<path d="M118.997 21.1621L38.7443 0.881348L-0.00341797 31.3088L80.2489 51.5896L118.997 21.1621Z" fill="#59468D"/>
<path d="M90.5248 13.9702L61.5643 6.66509L22.8166 37.08L51.4012 44.4354L90.5248 13.9702Z" fill="#877DC5"/>
<path d="M77.3917 10.6508L73.745 9.73298L35.0099 40.2233L38.9573 41.2292L77.3917 10.6508Z" fill="#3A2573"/>
<path d="M52.0278 63.1068L23.4307 55.7514L22.8166 37.08L51.4012 44.4354L52.0278 63.1068Z" fill="#3A2573"/>
<path d="M80.2489 120.881L118.997 90.4664L118.997 21.1621L80.2489 51.5896V120.881Z" fill="#3A2573"/>
<path d="M74.5596 91.1328L64.4716 88.7187V87.4362L74.5596 89.8503V91.1328Z" fill="#3A2573"/>
<path d="M74.5596 91.9878L64.4716 89.5863V89.1085L74.5596 91.51V91.9878Z" fill="#3A2573"/>
<path d="M74.5596 93.0314L64.4716 90.6173V90.1395L74.5596 92.5536V93.0314Z" fill="#3A2573"/>
<path d="M74.5596 94.1127L64.4716 91.6986V91.2334L74.5596 93.6349V94.1127Z" fill="#3A2573"/>
<path d="M74.5596 95.2694L64.4716 92.8679V92.3901L74.5596 94.8042V95.2694Z" fill="#3A2573"/>
<path d="M74.5596 96.3633L64.4716 93.9492V93.4715L74.5596 95.8855V96.3633Z" fill="#3A2573"/>
<path d="M74.5596 98.4756L64.4716 96.0616V94.9802L74.5596 97.3943V98.4756Z" fill="#3A2573"/>
<path d="M74.5596 101.279L64.4716 98.8654V98.3876L74.5596 100.802V101.279Z" fill="#3A2573"/>
<path d="M74.5596 100.035L64.4716 97.6207V97.1429L74.5596 99.557V100.035Z" fill="#3A2573"/>
<path d="M74.5596 102.323L64.4716 99.909V99.4312L74.5596 101.845V102.323Z" fill="#3A2573"/>
<path d="M74.5596 103.392L64.4716 100.99V100.513L74.5596 102.927V103.392Z" fill="#3A2573"/>
<path d="M74.5596 104.561L64.4716 102.16V101.682L74.5596 104.083V104.561Z" fill="#3A2573"/>
<path d="M74.5596 105.642L64.4716 103.241V102.763L74.5596 105.165V105.642Z" fill="#3A2573"/>
<path d="M74.5596 107.063L64.4716 104.649V103.568L74.5596 105.969V107.063Z" fill="#3A2573"/>
<path d="M74.5596 108.635L64.4716 106.233V105.14L74.5596 107.554V108.635Z" fill="#3A2573"/>
<path d="M74.5596 110.798L64.4716 108.396V106.963L74.5596 109.364V110.798Z" fill="#3A2573"/>
<path d="M13.3052 83.5385L8.81883 79.4773L11.7136 75.7053C11.9259 75.5262 12.1944 75.428 12.4718 75.428C12.7491 75.428 13.0177 75.5262 13.23 75.7053C14.4588 76.8538 15.3956 78.2808 15.9619 79.8671L13.3052 83.5385Z" fill="#3A2573"/>
<path d="M13.7437 75.1772L20.1599 76.7238C20.1599 76.7238 21.8266 77.3524 23.0672 80.8604L24.8092 80.4706L22.1023 84.5947L16.8015 82.9727L18.0546 82.3943C18.0546 82.3943 16.6385 77.3147 13.7437 75.1772Z" fill="#3A2573"/>
<path d="M20.4481 85.9526L25.1099 84.3558L27.8167 89.5863C27.8167 89.5863 28.1801 90.5922 27.4282 90.9819C25.9972 91.3982 24.4721 91.3542 23.0672 90.8562L20.4481 85.9526Z" fill="#3A2573"/>
<path d="M27.8292 91.8747L25.0222 97.1429C25.0222 97.1429 24.0698 98.0482 20.6487 96.9166V98.9409L17.5659 93.6601L20.3855 89.712L20.4607 91.334C20.4607 91.334 25.2603 93.2451 27.8292 91.8747Z" fill="#3A2573"/>
<path d="M16.2501 90.5796V96.0113L10.874 94.6911C10.5948 94.5744 10.3495 94.3887 10.161 94.1513C9.97258 93.9138 9.84705 93.6324 9.79626 93.3331C9.82641 91.9001 10.3438 90.5205 11.2625 89.4228L16.2501 90.5796Z" fill="#3A2573"/>
<path d="M8.98175 93.044L5.51047 86.7573C5.51047 86.7573 4.8087 85.0599 6.83882 82.759L5.20973 81.3382L10.6735 82.3566L13.255 87.6249L11.8139 86.6944C11.8139 86.6944 8.61833 89.7246 8.98175 93.044Z" fill="#3A2573"/>
</svg>
