<svg width="38" height="30" viewBox="0 0 38 30" fill="none" xmlns="http://www.w3.org/2000/svg">
<path d="M35.4964 8.78747H30.7232L24.4044 1.17275C23.5623 0.160314 22.0841 0.0422738 21.105 0.910767C20.1236 1.77926 20.0105 3.30509 20.8513 4.31873L24.5597 8.78755H13.6768L17.3852 4.31873C18.226 3.30509 18.1129 1.77934 17.1315 0.910843C16.1524 0.0435582 14.6741 0.161597 13.8321 1.17283L7.51325 8.78747H2.74012C1.44801 8.78747 0.400391 9.86954 0.400391 11.2041C0.400391 12.5388 1.44801 13.6208 2.74012 13.6208H2.76586C2.76586 13.6963 2.74531 13.7523 2.75613 13.819L4.77028 26.3001C5.05243 28.0547 6.50797 29.3292 8.23191 29.3292H30.0046C31.7286 29.3292 33.184 28.0547 33.4663 26.3001L35.4804 13.8191C35.4912 13.7524 35.4707 13.6964 35.4707 13.6209H35.4964C36.7885 13.6209 37.8361 12.5388 37.8361 11.2042C37.8361 9.86961 36.7885 8.78747 35.4964 8.78747ZM13.2689 23.2874C13.2689 23.9553 12.7457 24.4957 12.099 24.4957C11.4524 24.4957 10.9292 23.9553 10.9292 23.2874V17.2457C10.9292 16.5778 11.4524 16.0374 12.099 16.0374C12.7457 16.0374 13.2689 16.5778 13.2689 17.2457V23.2874ZM17.9484 23.2874C17.9484 23.9553 17.4252 24.4957 16.7785 24.4957C16.1319 24.4957 15.6086 23.9553 15.6086 23.2874V17.2457C15.6086 16.5778 16.1319 16.0374 16.7785 16.0374C17.4252 16.0374 17.9484 16.5778 17.9484 17.2457V23.2874ZM22.6278 23.2874C22.6278 23.9553 22.1046 24.4957 21.458 24.4957C20.8113 24.4957 20.2881 23.9553 20.2881 23.2874V17.2457C20.2881 16.5778 20.8113 16.0374 21.458 16.0374C22.1046 16.0374 22.6278 16.5778 22.6278 17.2457V23.2874ZM27.3073 23.2874C27.3073 23.9553 26.7841 24.4957 26.1374 24.4957C25.4908 24.4957 24.9676 23.9553 24.9676 23.2874V17.2457C24.9676 16.5778 25.4908 16.0374 26.1374 16.0374C26.7841 16.0374 27.3073 16.5778 27.3073 17.2457V23.2874Z" fill="#59468D"/>
</svg>
