<svg width="166" height="174" viewBox="0 0 166 174" fill="none" xmlns="http://www.w3.org/2000/svg">
<g clip-path="url(#clip0_115_60)">
<path d="M83.4661 84.0806C106.248 84.0806 124.716 65.4557 124.716 42.4808C124.716 19.5059 106.248 0.881042 83.4661 0.881042C60.6843 0.881042 42.2161 19.5059 42.2161 42.4808C42.2161 65.4557 60.6843 84.0806 83.4661 84.0806Z" fill="#C9C9CE"/>
<path d="M42.2083 0.881042V84.0885C31.3658 83.9374 21.0182 79.4877 13.4038 71.7019C5.78943 63.9161 1.52051 53.4202 1.52051 42.4848C1.52051 31.5493 5.78943 21.0534 13.4038 13.2676C21.0182 5.48186 31.3658 1.03214 42.2083 0.881042Z" fill="#59468D"/>
<path d="M165.958 42.4808C165.96 47.944 164.895 53.3542 162.823 58.4022C160.752 63.4502 157.714 68.0371 153.884 71.9009C150.054 75.7648 145.507 78.8298 140.502 80.921C135.498 83.0122 130.133 84.0885 124.716 84.0885V0.881042C130.133 0.881042 135.496 1.95711 140.501 4.04779C145.505 6.13847 150.052 9.20281 153.881 13.0658C157.711 16.9288 160.749 21.5148 162.821 26.5619C164.893 31.6089 165.959 37.0182 165.958 42.4808Z" fill="#C9C9CE"/>
<path d="M165.958 136.213V173.881H0.958252V136.213C0.96034 125.181 5.30698 114.601 13.0424 106.8C20.7778 98.9991 31.2687 94.6156 42.2083 94.6135V136.221C42.1327 130.709 43.144 125.237 45.1833 120.123C47.2226 115.009 50.2493 110.354 54.0876 106.429C57.9259 102.505 62.4992 99.3881 67.5419 97.2611C72.5846 95.134 77.9962 94.0386 83.4622 94.0386C88.9282 94.0386 94.3398 95.134 99.3825 97.2611C104.425 99.3881 108.999 102.505 112.837 106.429C116.675 110.354 119.702 115.009 121.741 120.123C123.78 125.237 124.792 130.709 124.716 136.221V94.6135C130.133 94.6135 135.496 95.6896 140.501 97.7803C145.505 99.871 150.052 102.935 153.882 106.798C157.711 110.661 160.749 115.247 162.821 120.294C164.893 125.341 165.959 130.751 165.958 136.213Z" fill="url(#paint0_linear_115_60)"/>
</g>
<defs>
<linearGradient id="paint0_linear_115_60" x1="0.958253" y1="140.218" x2="159.154" y2="140.218" gradientUnits="userSpaceOnUse">
<stop offset="0.26042" stop-color="#59468D"/>
<stop offset="0.261481" stop-color="#C9C9CE"/>
<stop offset="0.781405" stop-color="#C9C9CE"/>
</linearGradient>
<clipPath id="clip0_115_60">
<rect width="165" height="173" fill="white" transform="translate(0.958252 0.881042)"/>
</clipPath>
</defs>
</svg>
