<svg width="166" height="174" viewBox="0 0 166 174" fill="none" xmlns="http://www.w3.org/2000/svg">
<path d="M83.0073 84.0806C105.927 84.0806 124.507 65.4557 124.507 42.4808C124.507 19.5059 105.927 0.881042 83.0073 0.881042C60.0875 0.881042 41.5073 19.5059 41.5073 42.4808C41.5073 65.4557 60.0875 84.0806 83.0073 84.0806Z" fill="#59468D"/>
<path d="M41.4996 0.881042V84.0885C30.5914 83.9374 20.181 79.4877 12.5205 71.7019C4.85998 63.9161 0.565186 53.4202 0.565186 42.4848C0.565186 31.5493 4.85998 21.0534 12.5205 13.2676C20.181 5.48186 30.5914 1.03214 41.4996 0.881042Z" fill="#C9C9CE"/>
<path d="M165.999 42.4808C166.001 47.944 164.93 53.3542 162.846 58.4022C160.761 63.4502 157.705 68.0371 153.852 71.9009C149.999 75.7648 145.424 78.8298 140.389 80.921C135.354 83.0122 129.957 84.0885 124.507 84.0885V0.881042C129.957 0.881042 135.353 1.95711 140.387 4.04779C145.422 6.13847 149.996 9.20281 153.849 13.0658C157.702 16.9288 160.759 21.5148 162.843 26.5619C164.928 31.6089 166 37.0182 165.999 42.4808Z" fill="#C9C9CE"/>
<path d="M166 136.213V173.881H-0.000488281V136.213C0.00161267 125.181 4.3746 114.601 12.1569 106.8C19.9392 98.9991 30.4937 94.6156 41.4995 94.6135V136.221C41.4235 130.709 42.4409 125.237 44.4926 120.123C46.5443 115.009 49.5893 110.354 53.4509 106.429C57.3124 102.505 61.9134 99.3881 66.9867 97.2611C72.06 95.134 77.5043 94.0386 83.0035 94.0386C88.5026 94.0386 93.947 95.134 99.0202 97.2611C104.094 99.3881 108.695 102.505 112.556 106.429C116.418 110.354 119.463 115.009 121.514 120.123C123.566 125.237 124.583 130.709 124.507 136.221V94.6135C129.957 94.6135 135.353 95.6896 140.388 97.7803C145.422 99.871 149.997 102.935 153.85 106.798C157.703 110.661 160.759 115.247 162.843 120.294C164.928 125.341 166.001 130.751 166 136.213Z" fill="url(#paint0_linear_120_87)"/>
<defs>
<linearGradient id="paint0_linear_120_87" x1="-0.000487177" y1="140.218" x2="159.154" y2="140.218" gradientUnits="userSpaceOnUse">
<stop offset="0.261481" stop-color="#C9C9CE"/>
<stop offset="0.261581" stop-color="#59468D"/>
<stop offset="0.770833" stop-color="#59468D"/>
<stop offset="0.781405" stop-color="#C9C9CE"/>
</linearGradient>
</defs>
</svg>
