<svg width="166" height="174" viewBox="0 0 166 174" fill="none" xmlns="http://www.w3.org/2000/svg">
<path d="M82.9194 84.0307C60.1377 84.0307 41.6694 65.4058 41.6694 42.4309C41.6694 19.456 60.1377 0.831177 82.9194 0.831177C105.701 0.831177 124.169 19.456 124.169 42.4309C124.169 65.4058 105.701 84.0307 82.9194 84.0307Z" fill="#C9C9CE"/>
<path d="M124.169 0.831177V84.0386C135.012 83.8875 145.359 79.4378 152.974 71.652C160.588 63.8662 164.857 53.3704 164.857 42.4349C164.857 31.4994 160.588 21.0036 152.974 13.2178C145.359 5.43199 135.012 0.98227 124.169 0.831177Z" fill="#59468D"/>
<path d="M0.427307 42.4309C0.425236 47.8942 1.49046 53.3043 3.56215 58.3523C5.63383 63.4003 8.67138 67.9872 12.5013 71.8511C16.3312 75.7149 20.8784 78.7799 25.8831 80.8711C30.8879 82.9623 36.2521 84.0386 41.6694 84.0386V0.831177C36.2528 0.831177 30.8892 1.90724 25.8849 3.99792C20.8807 6.08861 16.3338 9.15295 12.5041 13.0159C8.67427 16.8789 5.63655 21.4649 3.56441 26.512C1.49226 31.5591 0.42627 36.9683 0.427307 42.4309Z" fill="#C9C9CE"/>
<path d="M0.427246 136.213V173.881H165.427V136.213C165.425 125.181 161.079 114.601 153.343 106.8C145.608 98.9991 135.117 94.6156 124.177 94.6135V136.221C124.253 130.709 123.241 125.237 121.202 120.123C119.163 115.009 116.136 110.354 112.298 106.429C108.46 102.505 103.886 99.3881 98.8436 97.2611C93.8009 95.134 88.3893 94.0386 82.9233 94.0386C77.4573 94.0386 72.0457 95.134 67.003 97.2611C61.9603 99.3881 57.387 102.505 53.5487 106.429C49.7104 110.354 46.6837 115.009 44.6444 120.123C42.6051 125.237 41.5938 130.709 41.6694 136.221V94.6135C36.2527 94.6135 30.8891 95.6896 25.8849 97.7803C20.8806 99.871 16.3338 102.935 12.504 106.798C8.67419 110.661 5.63649 115.247 3.56435 120.294C1.4922 125.341 0.426208 130.751 0.427246 136.213Z" fill="url(#paint0_linear_120_95)"/>
<defs>
<linearGradient id="paint0_linear_120_95" x1="165.427" y1="140.218" x2="7.23136" y2="140.218" gradientUnits="userSpaceOnUse">
<stop offset="0.26042" stop-color="#59468D"/>
<stop offset="0.261481" stop-color="#C9C9CE"/>
<stop offset="0.781405" stop-color="#C9C9CE"/>
</linearGradient>
</defs>
</svg>
