<svg width="170" height="177" viewBox="0 0 170 177" fill="none" xmlns="http://www.w3.org/2000/svg">
<path d="M85.0083 82.3167C83.8973 82.3167 82.7972 82.2704 81.7098 82.1797L81.6683 82.678C78.6531 82.4264 75.7337 81.8375 72.9479 80.9489L73.0998 80.4725C70.9877 79.7988 68.9532 78.9507 67.0133 77.9449L66.7832 78.3888C64.133 77.0147 61.6572 75.3503 59.3979 73.4377L59.7209 73.0561C58.0415 71.6343 56.4832 70.0736 55.0637 68.3917L54.6816 68.7141C52.7728 66.4524 51.1119 63.9743 49.7409 61.3218L50.1851 61.0922C49.1819 59.1512 48.3359 57.1158 47.664 55.0027L47.1875 55.1542C46.3015 52.3679 45.7143 49.4482 45.4635 46.4328L45.9618 46.3913C45.8713 45.3039 45.8252 44.2038 45.8252 43.0927C45.8252 41.9817 45.8713 40.8816 45.9618 39.7941L45.4635 39.7527C45.7143 36.7373 46.3015 33.8176 47.1875 31.0312L47.664 31.1827C48.3359 29.0697 49.1819 27.0342 50.1851 25.0933L49.7409 24.8637C51.1119 22.2112 52.7728 19.733 54.6816 17.4713L55.0637 17.7938C56.4832 16.1119 58.0415 14.5512 59.7209 13.1294L59.3979 12.7478C61.6572 10.8351 64.1329 9.17074 66.7832 7.79667L67.0133 8.24056C68.9532 7.23481 70.9877 6.38664 73.0998 5.71293L72.9479 5.23658C75.7337 4.34799 78.6531 3.75902 81.6682 3.50749L81.7098 4.00576C82.7972 3.91505 83.8973 3.86877 85.0083 3.86877C86.1193 3.86877 87.2193 3.91505 88.3067 4.00576L88.3483 3.50749C91.3634 3.75902 94.2828 4.34799 97.0686 5.23658L96.9167 5.71293C99.0289 6.38664 101.063 7.23481 103.003 8.24056L103.233 7.79667C105.884 9.17074 108.359 10.8351 110.619 12.7478L110.296 13.1294C111.975 14.5512 113.533 16.1119 114.953 17.7938L115.335 17.4713C117.244 19.733 118.905 22.2112 120.276 24.8637L119.831 25.0933C120.835 27.0342 121.681 29.0697 122.353 31.1827L122.829 31.0312C123.715 33.8176 124.302 36.7373 124.553 39.7527L124.055 39.7941C124.145 40.8816 124.191 41.9817 124.191 43.0927C124.191 44.2038 124.145 45.3039 124.055 46.3913L124.553 46.4328C124.302 49.4482 123.715 52.3679 122.829 55.1542L122.353 55.0027C121.681 57.1158 120.835 59.1512 119.831 61.0922L120.276 61.3218C118.905 63.9743 117.244 66.4524 115.335 68.7141L114.953 68.3917C113.533 70.0736 111.975 71.6343 110.296 73.0561L110.619 73.4377C108.359 75.3503 105.884 77.0147 103.233 78.3888L103.003 77.9449C101.063 78.9507 99.0289 79.7988 96.9167 80.4725L97.0686 80.9489C94.2828 81.8375 91.3634 82.4264 88.3483 82.678L88.3067 82.1797C87.2193 82.2704 86.1193 82.3167 85.0083 82.3167Z" stroke="#D5D917" stroke-dasharray="6 8"/>
<path d="M42.6965 0.74585V85.4476C31.5771 85.2938 20.9653 80.7642 13.1565 72.8386C5.34765 64.913 0.969727 54.2286 0.969727 43.0967C0.969727 31.9649 5.34765 21.2805 13.1565 13.3549C20.9653 5.42929 31.5771 0.899656 42.6965 0.74585Z" fill="#C9CC1F"/>
<path d="M169.607 43.0927C169.609 48.6541 168.516 54.1614 166.392 59.3C164.267 64.4387 161.152 69.108 157.224 73.0412C153.297 76.9744 148.633 80.0945 143.501 82.2232C138.368 84.352 132.867 85.4476 127.312 85.4476V0.74585C132.866 0.74585 138.367 1.84124 143.499 3.96947C148.631 6.0977 153.294 9.21707 157.222 13.1494C161.149 17.0818 164.264 21.7502 166.39 26.8879C168.515 32.0256 169.608 37.532 169.607 43.0927Z" fill="#C9CC1F"/>
<path d="M169.607 138.509V176.853H0.393555V138.509C0.395696 127.278 4.85332 116.508 12.7863 108.567C20.7192 100.626 31.478 96.1639 42.6968 96.1617V138.517C42.6194 132.906 43.6565 127.336 45.7479 122.129C47.8392 116.923 50.9432 112.185 54.8795 108.19C58.8158 104.194 63.5059 101.022 68.6773 98.8568C73.8488 96.6916 79.3985 95.5765 85.0041 95.5765C90.6097 95.5765 96.1595 96.6916 101.331 98.8568C106.502 101.022 111.192 104.194 115.129 108.19C119.065 112.185 122.169 116.923 124.26 122.129C126.352 127.336 127.389 132.906 127.311 138.517V96.1617C132.866 96.1617 138.367 97.2571 143.499 99.3854C148.631 101.514 153.294 104.633 157.222 108.565C161.149 112.498 164.264 117.166 166.389 122.304C168.514 127.441 169.608 132.948 169.607 138.509Z" fill="#C9CC1F"/>
</svg>
