<svg width="270" height="50" viewBox="0 0 270 50" fill="none" xmlns="http://www.w3.org/2000/svg">
<path fill-rule="evenodd" clip-rule="evenodd" d="M246.491 37.2007H251.243V16.8775L251.308 16.8063L255.718 37.2007H260.707L265.183 16.8775L265.253 16.8063V37.2007H269.999V12.8463H262.693L258.349 32.0513H258.278L253.933 12.8463H246.491V37.2007ZM232.704 18.3339H232.773L235.802 28.0202H229.641L232.704 18.3339ZM221.288 37.2007H226.608L228.328 32.1877H237.25L238.767 37.2007H244.289L235.736 12.8463H229.877L221.288 37.2007ZM201.379 37.2007H219.734V32.8967H206.328V26.5993H218.151V22.3294H206.328V17.1459H219.196V12.8463H201.379V37.2007ZM186.63 37.2007H191.718V17.1459H199.024V12.8463H179.357V17.1459H186.63V37.2007ZM168.962 29.9171H178.391V25.481H168.962V29.9171ZM151.971 23.5841V17.0792H158.409C161.098 17.0792 161.843 18.7388 161.843 20.1952C161.843 22.1277 161.098 23.5841 158.272 23.5841H151.971ZM147.024 37.2007H151.971V27.6805H157.362C160.898 27.6805 161.033 29.1384 161.098 31.105C161.169 33.1028 161.098 35.4046 161.707 37.2007H167.299V36.5229C166.287 36.2856 166.187 34.8292 166.118 33.1028C166.187 32.695 166.187 32.2886 166.187 31.986V30.9686C166.187 28.5971 165.851 26.4273 163.155 25.5463C165.579 24.7024 166.892 22.3294 166.892 19.6539C166.825 16.3673 164.603 12.8463 159.314 12.8463H147.024V37.2007ZM125.229 37.2007H143.584V32.8967H130.178V26.5993H142V22.3294H130.178V17.1459H143.046V12.8463H125.229V37.2007ZM110.479 37.2007H115.568V17.1459H122.874V12.8463H103.207V17.1459H110.479V37.2007ZM81.4342 37.2007H86.1866V19.857H86.2515L96.119 37.2007H101.172V12.8463H96.4552V29.7806H96.3903L86.7897 12.8463H81.4342V37.2007ZM72.2686 37.2007H77.3527V12.8463H72.2686V37.2007Z" fill="#ED1C24"/>
<path fill-rule="evenodd" clip-rule="evenodd" d="M3.29752 45.3467H0.6596L8.1664 37.2578H15.2662L20.4905 31.4217H26.9828L32.3073 25.5841H38.5961L44.4294 19.9008H50.6165L56.0574 14.1225H58.8826L51.4274 22.3583H45.1902L39.2553 28.144H32.9664L27.692 34.0839H20.9977L15.8752 39.7657H8.87565L3.29752 45.3467ZM2.63841 36.8677H0.000488281L7.50729 28.7788H14.6071L19.8314 22.9427H26.3237L31.6482 17.1066H37.937L43.7688 11.4233H49.9573L55.3983 5.64353H58.2235L50.7683 13.8808H44.5296L38.5961 19.6665H32.3073L27.0329 25.6049H20.3386L15.2161 31.2882H8.21653L2.63841 36.8677ZM6.68893 26.5289L10.2558 21.2134H18.0147L23.239 15.3758H29.7313L34.7565 9.78144L41.5245 9.84225L45.3082 5.21787C41.2857 2.26794 36.3386 0.523785 30.9994 0.523785C23.2449 0.523785 16.3161 4.20193 11.8498 9.91196H31.0127L28.593 12.9034H9.84441C9.33127 13.8052 8.8727 14.744 8.47458 15.7124H19.4598L17.0401 18.7039H7.466C6.9278 20.721 6.64174 22.8403 6.64174 25.0235C6.64174 25.5292 6.65944 26.029 6.68893 26.5289ZM55.1904 22.1537L48.6789 29.0531H42.4417L37.216 35.0064H30.2179L25.9447 40.6512H18.2492L15.5257 43.9185C19.7385 47.4172 25.1323 49.5232 30.9994 49.5232C38.5608 49.5232 45.3347 46.029 49.8084 40.5592H30.1442L32.5639 37.5663H51.9081C52.4508 36.6556 52.9374 35.7064 53.3605 34.7231H41.4774L43.8956 31.7302H54.4266C55.0341 29.5974 55.3585 27.3475 55.3585 25.0235C55.3585 24.0535 55.301 23.0954 55.1904 22.1537Z" fill="#231F20"/>
</svg>
