<svg width="267" height="62" viewBox="0 0 267 62" fill="none" xmlns="http://www.w3.org/2000/svg">
<path d="M39.8277 41.9528C39.8277 44.169 39.45 46.1969 38.6861 48.0194C37.9221 49.8505 36.8234 51.4078 35.3814 52.6999C33.9394 53.9919 32.1883 54.9931 30.1283 55.6861C28.0682 56.3878 25.7421 56.73 23.1413 56.73C20.549 56.73 18.2143 56.3792 16.1542 55.6861C14.0942 54.9845 12.3432 53.9919 10.9011 52.6999C9.45908 51.4078 8.36038 49.842 7.59645 48.0194C6.83251 46.1883 6.45483 44.169 6.45483 41.9528V18.4221C6.90976 18.3366 7.63078 18.2253 8.61789 18.0799C9.605 17.9344 10.5578 17.866 11.459 17.866C12.4032 17.866 13.2444 17.9344 13.9654 18.0799C14.6865 18.2253 15.2959 18.482 15.7852 18.85C16.2744 19.2179 16.6521 19.7313 16.901 20.3902C17.1499 21.049 17.2701 21.9132 17.2701 22.9743V41.7646C17.2701 43.7326 17.8195 45.2728 18.9096 46.3851C19.9997 47.4975 21.416 48.0451 23.1413 48.0451C24.9095 48.0451 26.3343 47.4889 27.4073 46.3851C28.4802 45.2728 29.0124 43.7326 29.0124 41.7646V18.4221C29.4673 18.3366 30.1884 18.2253 31.1755 18.0799C32.1626 17.9344 33.1153 17.866 34.0166 17.866C34.9608 17.866 35.802 17.9344 36.523 18.0799C37.244 18.2253 37.8535 18.482 38.3427 18.85C38.8406 19.2179 39.2097 19.7313 39.4586 20.3902C39.7075 21.049 39.8277 21.9132 39.8277 22.9743V41.9528Z" fill="#00997D"/>
<path d="M39.6903 43.8609C39.2354 43.9807 38.5229 44.109 37.5616 44.2288C36.5916 44.3486 35.6388 44.4171 34.6861 44.4171C33.7419 44.4171 32.9007 44.3486 32.1797 44.2032C31.4587 44.0577 30.8492 43.801 30.36 43.4331C29.8621 43.0651 29.493 42.5517 29.2441 41.8929C28.9952 41.234 28.875 40.3698 28.875 39.3088V10.2848C28.875 9.42057 29.1153 8.75316 29.5874 8.28254C30.0595 7.81193 30.7119 7.42688 31.5359 7.14452C32.935 6.64823 34.5316 6.28886 36.3255 6.06638C38.1195 5.84391 39.922 5.72412 41.7332 5.72412C47.4155 5.72412 51.7673 6.93916 54.7716 9.36068C57.7758 11.7822 59.2865 15.0679 59.2865 19.2179C59.2865 21.2287 58.9689 23.0512 58.3252 24.6684C57.69 26.2942 56.7372 27.6889 55.484 28.8612C54.2308 30.0334 52.6429 30.9319 50.7287 31.5736C48.8146 32.2068 46.6 32.5319 44.0851 32.5319H39.6989V43.8609H39.6903ZM42.9091 24.0866C44.643 24.0866 45.9649 23.6844 46.8919 22.8887C47.8189 22.0929 48.2824 20.8693 48.2824 19.2264C48.2824 17.6691 47.8017 16.4627 46.8318 15.6241C45.8619 14.7856 44.4542 14.3577 42.6001 14.3577C41.9392 14.3577 41.3984 14.3663 40.9606 14.392C40.5315 14.4091 40.0851 14.4604 39.6302 14.546V24.0951H42.9091V24.0866Z" fill="#194189"/>
<path d="M81.8271 23.2395C81.8271 22.2384 81.6039 21.3913 81.1661 20.6896C80.7198 19.988 80.0417 19.6372 79.1232 19.6372C78.1018 19.6372 77.355 19.9452 76.8829 20.5527C76.4023 21.1603 76.1705 21.8362 76.1705 22.5892C76.1705 23.6759 76.5568 24.5487 77.3207 25.1819C78.0846 25.8236 79.046 26.3712 80.1962 26.8418C81.355 27.3125 82.591 27.7831 83.9214 28.2708C85.2433 28.7585 86.4879 29.3832 87.6381 30.1618C88.7969 30.9405 89.7497 31.9587 90.5222 33.2251C91.2861 34.4829 91.6724 36.1343 91.6724 38.1537C91.6724 41.7047 90.5651 44.2887 88.3591 45.8888C86.1532 47.4975 82.9601 48.2932 78.7799 48.2932C76.8057 48.2932 75.0632 48.1478 73.5525 47.8483C72.0418 47.5488 70.7629 47.0354 69.7328 46.3081C68.6942 45.5722 67.9045 44.6225 67.3638 43.4331C66.823 42.2523 66.5483 40.7805 66.5483 39.035V37.8627H75.7242V38.6585C75.7242 40.096 76.016 41.0971 76.5911 41.6704C77.1662 42.2437 77.913 42.5346 78.8314 42.5346C79.8185 42.5346 80.5739 42.2266 81.0975 41.602C81.6211 40.9773 81.8872 40.2158 81.8872 39.3088C81.8872 38.2221 81.5181 37.3493 80.7885 36.7162C80.0589 36.0744 79.1404 35.5353 78.0331 35.0818C76.9259 34.6283 75.7327 34.1663 74.4366 33.7042C73.1405 33.2336 71.9474 32.6261 70.8401 31.8817C69.7328 31.1373 68.8144 30.1532 68.0848 28.9382C67.3552 27.7232 66.9861 26.1316 66.9861 24.1722C66.9861 20.7752 67.9732 18.1911 69.9388 16.4113C71.9131 14.6316 74.9001 13.7502 78.9087 13.7502C83.0545 13.7502 86.0502 14.5717 87.9042 16.206C89.7583 17.8403 90.6853 20.4501 90.6853 24.0353H81.8271V23.2395Z" fill="black"/>
<path d="M104.513 14.4006V26.6451H110.324V14.4006H119.809V47.7799H110.324V34.038H104.513V47.7799H95.0286V14.4006H104.513Z" fill="black"/>
<path d="M133.414 14.4006V47.7799H123.929V14.4006H133.414Z" fill="black"/>
<path d="M151.405 14.4006C153.208 14.4006 154.77 14.6659 156.092 15.1964C157.414 15.7269 158.512 16.4542 159.379 17.3698C160.246 18.2853 160.882 19.372 161.294 20.6213C161.697 21.8705 161.903 23.2225 161.903 24.6857C161.903 28.1425 160.89 30.7352 158.873 32.4722C156.847 34.2006 153.886 35.0648 149.98 35.0648H146.667V47.7799H137.182V14.4006H151.405ZM148.453 28.8014C149.646 28.8014 150.547 28.4762 151.182 27.8174C151.809 27.1585 152.126 26.1317 152.126 24.7284C152.126 22.016 150.899 20.6641 148.453 20.6641H146.667V28.8014H148.453Z" fill="black"/>
<path d="M178.778 14.4006C180.581 14.4006 182.143 14.6659 183.465 15.1964C184.787 15.7269 185.886 16.4542 186.752 17.3698C187.619 18.2853 188.255 19.372 188.667 20.6213C189.07 21.8705 189.276 23.2225 189.276 24.6857C189.276 28.1425 188.263 30.7352 186.246 32.4722C184.22 34.2006 181.259 35.0648 177.353 35.0648H174.04V47.7799H164.555V14.4006H178.778ZM175.826 28.8014C177.019 28.8014 177.92 28.4762 178.555 27.8174C179.182 27.1585 179.499 26.1317 179.499 24.7284C179.499 22.016 178.272 20.6641 175.826 20.6641H174.04V28.8014H175.826Z" fill="black"/>
<path d="M201.413 14.4006V47.7799H191.928V14.4006H201.413Z" fill="black"/>
<path d="M216.142 14.4006L222.262 34.9707H222.365V14.4006H231.232V47.7799H220.838L214.52 27.1671H214.417V47.7799H205.55V14.4006H216.142Z" fill="black"/>
<path d="M260.185 29.6399V47.7799H253.764L253.558 44.8364H253.455C253.146 45.5551 252.717 46.1455 252.159 46.6162C251.601 47.0868 250.966 47.4376 250.271 47.6686C249.575 47.8996 248.829 48.0622 248.03 48.1563C247.232 48.2505 246.425 48.2932 245.61 48.2932C243.198 48.2932 241.292 47.9253 239.902 47.198C238.511 46.4621 237.455 45.3669 236.743 43.9037C236.03 42.4405 235.576 40.6351 235.395 38.4788C235.206 36.3311 235.112 33.8668 235.112 31.0945C235.112 28.2879 235.292 25.8151 235.644 23.6588C236.005 21.5111 236.683 19.6971 237.687 18.2339C238.691 16.7707 240.073 15.6584 241.842 14.8883C243.61 14.1267 245.884 13.7417 248.674 13.7417C250.339 13.7417 251.876 13.9471 253.283 14.3492C254.691 14.7514 255.91 15.4102 256.931 16.3087C257.953 17.2157 258.751 18.3708 259.326 19.7912C259.901 21.2116 260.193 22.9315 260.193 24.9594H251.017C251.017 23.1796 250.846 21.8876 250.511 21.0833C250.168 20.1164 249.438 19.6372 248.322 19.6372C247.541 19.6372 246.923 19.8083 246.46 20.1506C246.005 20.4929 245.661 21.1004 245.438 21.9731C245.215 22.8459 245.069 24.0267 245 25.4985C244.932 26.9788 244.897 28.8441 244.897 31.0859C244.897 33.3278 244.932 35.1931 245 36.6734C245.069 38.1537 245.215 39.3345 245.438 40.2073C245.661 41.08 245.979 41.6876 246.408 42.0298C246.829 42.3721 247.404 42.5432 248.116 42.5432C248.623 42.5432 249.078 42.4491 249.464 42.2608C249.85 42.0726 250.185 41.7218 250.459 41.2084C250.734 40.695 250.94 39.9762 251.095 39.0607C251.249 38.1451 251.326 36.9643 251.326 35.5268H247.962V29.6399H260.185Z" fill="black"/>
</svg>
