<svg width="270" height="38" viewBox="0 0 270 38" fill="none" xmlns="http://www.w3.org/2000/svg">
<path fill-rule="evenodd" clip-rule="evenodd" d="M2.21155 37.2895C1.67679 37.226 1.14203 37.1717 0.661654 37.1717C0.661654 36.7547 0.661654 36.3378 0.661654 35.9209C0.425996 35.8574 0.244721 35.8574 0.0634462 35.8574C0 35.3861 0 34.9692 0 34.5522C0.0634462 34.5522 0.117829 34.5522 0.181275 34.5522C0.181275 34.371 0.181275 34.2531 0.181275 34.1353C0.299104 34.1353 0.244721 33.8996 0.480379 34.1353C0.779482 33.4827 0.543825 32.6488 0.543825 32.531C0.425996 32.5945 0.308167 32.6488 0.190339 32.7123C0.126892 31.7062 0.07251 30.6911 0.00906375 29.7394C0.190339 29.6759 0.36255 29.6759 0.543825 29.6759C0.543825 29.4403 0.607271 29.2046 0.661654 29.0233C0.425996 29.0233 0.244721 29.0868 0.0634462 29.1412C0.126892 28.1351 0.181275 27.1834 0.244721 26.2317C0.36255 26.1683 0.543825 26.1139 0.716036 26.0504C0.65259 25.6335 0.598207 25.28 0.598207 24.9175C0.480379 24.9809 0.36255 25.0353 0.299104 25.0987C-0.0543825 24.7453 0.0634462 22.008 0.0634462 21.9446C0.244721 21.8267 0.480379 21.7089 0.716036 21.6455C0.716036 21.5276 0.779482 21.4098 0.833865 21.292C0.534761 21.292 0.299104 21.3554 0.0634462 21.4098C0.0634462 20.3403 0.126892 19.2708 0.181275 18.2556C0.36255 18.1378 0.598207 18.0743 0.833865 18.02C0.716036 17.5486 0.65259 17.0683 0.598207 16.5969C0.480379 16.6604 0.36255 16.7148 0.244721 16.8326C0.181275 15.6996 0.181275 14.5757 0.181275 13.5062C0.36255 13.3884 0.598207 13.2706 0.833865 13.2071C0.770419 13.0258 0.770419 12.908 0.770419 12.7902C0.589144 12.908 0.471315 13.0258 0.353486 13.1437C-0.244721 11.9563 0.29004 10.5242 0.29004 9.75382C0.353486 9.75382 0.407869 9.75382 0.525697 9.75382C0.643526 9.98947 0.824801 10.2886 0.997012 10.5877C1.06046 10.5877 1.11484 10.5877 1.17829 10.5877C1.17829 10.7055 1.24173 10.8233 1.29612 11.0046C1.06046 11.0681 0.824801 11.1859 0.643526 11.3037C0.643526 11.9019 0.525697 11.9019 0.997012 12.8536C1.06046 12.8536 1.11484 12.8536 1.23267 12.9171C1.23267 12.9805 1.23267 13.0349 1.23267 13.1527C1.41394 13.2706 1.58616 13.3884 1.76743 13.5062C1.58616 13.5062 1.41394 13.5062 1.23267 13.5697C1.23267 13.6875 1.23267 13.8053 1.23267 13.9231C1.11484 13.9231 1.05139 13.9231 0.997012 13.9231C0.879184 14.5213 0.697909 14.6392 1.3505 15.5274C1.58616 15.5274 2.00309 16.0622 2.9004 16.4791C2.83695 16.5426 2.83695 16.5969 2.83695 16.7148C2.71912 16.7148 2.65568 16.7148 2.6013 16.7782C2.53785 17.0773 2.48347 17.3764 2.48347 17.7299C2.12998 17.7299 1.83088 17.7299 1.53177 17.7934C2.24781 18.3916 2.95478 18.9807 3.73426 19.6333C3.73426 19.869 3.73426 20.1046 3.73426 20.4037C3.79771 20.4037 3.85209 20.4037 3.91554 20.4037C3.91554 20.4672 3.91554 20.5216 3.91554 20.585C4.03337 20.585 4.1512 20.585 4.26903 20.6484C4.26903 20.7119 4.26903 20.7663 4.26903 20.8297C4.4503 20.8297 4.62251 20.8932 4.86723 20.9475C4.86723 21.1832 4.86723 21.4823 4.86723 21.7814C5.46544 21.9627 6.05458 22.1349 6.70717 22.3796C6.58935 22.4431 6.5259 22.5609 6.47152 22.6787C6.47152 23.15 6.40807 23.15 6.77062 24.283C6.70717 24.5187 6.70717 24.8178 6.70717 25.1169C5.51982 25.1169 5.10289 25.5882 4.62251 26.0051C4.62251 26.2408 4.62251 26.4764 4.68596 26.7755C4.38685 27.0746 4.4503 26.9568 4.4503 27.4916C4.26903 27.4281 4.1512 27.3737 4.03337 27.3737C2.96385 26.6033 2.31126 26.0686 1.65867 26.0686C2.01215 26.2498 3.02729 26.6033 3.44422 27.4372C3.56205 27.4372 3.67988 27.4372 3.86116 27.5006C3.86116 27.5641 3.9246 27.6185 3.97899 27.7363C4.09681 27.7363 4.21464 27.7363 4.39592 27.7363C4.39592 27.7997 4.39592 27.8541 4.39592 27.9176C4.51375 27.981 4.63158 28.0354 4.81285 28.0988C4.7494 28.4523 4.7494 28.8149 4.7494 29.2318C5.04851 29.3496 5.34761 29.5309 5.7011 29.7031C5.7011 29.7666 5.51982 30.0566 5.81893 30.537C6.05458 30.6548 6.35369 30.7727 6.65279 30.9539C6.65279 32.8573 6.65279 34.7607 6.65279 36.6641C4.86723 35.7758 3.67988 34.8241 2.25687 33.8725C2.19343 33.809 2.19343 33.7546 2.19343 33.6912C1.89432 33.6912 1.65867 33.6912 1.42301 33.6912C1.35956 33.7546 1.35956 33.8725 1.35956 33.9903C1.42301 33.9903 1.47739 33.9903 1.54084 33.9903C1.54084 34.0537 1.60428 34.1081 1.65867 34.2259C2.31126 34.2894 2.79163 34.8785 3.86116 35.5311C3.97899 35.5946 4.09681 35.6489 4.21464 35.7124C3.86116 35.7758 3.49861 35.8302 3.20857 35.8937C3.44422 36.0749 4.09681 36.4284 4.81285 37.1445C3.9246 37.2079 3.02729 37.2623 2.19343 37.3257L2.21155 37.2895ZM8.09393 37.226C7.9761 36.7547 7.91265 36.2743 7.85827 35.803C7.677 35.803 7.55917 35.803 7.44134 35.803C7.50478 34.6701 7.55917 33.5462 7.62261 32.4132C7.74044 32.4132 7.92172 32.4132 8.09393 32.4132C8.21176 32.7667 8.32959 33.1292 8.44741 33.5462C8.86435 33.5462 9.28128 33.5462 9.69821 33.5462C9.69821 34.3166 9.81604 35.0326 11.4203 34.797C11.5382 34.6791 11.7194 34.5613 11.8916 34.4979C12.0095 34.9148 11.9551 35.2139 12.8977 35.6852C13.0155 35.6218 13.1334 35.6218 13.2512 35.6218C13.1878 36.0931 13.1334 36.6278 13.1334 37.1717C11.4113 37.1717 9.74353 37.1717 8.08486 37.2351L8.09393 37.226ZM14.5745 37.1626C14.5745 36.6913 14.638 36.2109 14.6923 35.794C14.5111 35.7305 14.3389 35.6761 14.1576 35.6761C14.0397 35.6761 13.9763 35.7396 13.9219 35.794C13.9219 35.0779 14.1032 35.0779 14.221 34.8423C14.5745 35.0779 14.8192 35.4405 15.7075 35.6127C16.0066 35.2592 16.3057 34.8967 16.5957 34.6066C16.8948 34.9057 17.5474 34.7879 18.0187 34.7244C18.0822 34.3075 18.2 33.954 18.3178 33.5915C18.4991 33.6549 18.6713 33.7093 18.916 33.8271C19.1517 33.7637 19.3874 33.7093 19.6321 33.7093C19.6321 34.1806 19.6321 34.661 19.6321 35.1323C19.3964 35.2501 19.2151 35.368 19.0339 35.4858C19.0339 35.5492 19.0339 35.6036 19.0339 35.6671C18.2 35.6671 18.2635 35.9027 18.0278 36.3831C17.6109 36.5644 17.1939 36.8 16.777 37.0357C16.0066 37.0357 15.2905 37.0991 14.5745 37.1535V37.1626ZM18.9704 37.1626C18.9704 36.7457 19.2061 36.7457 19.5686 36.6278C19.5686 36.8091 19.6321 36.9813 19.6865 37.1626C19.4508 37.1626 19.2151 37.1626 18.9704 37.1626ZM21.1095 37.1626C21.1095 36.6913 21.1095 36.2109 21.1729 35.7396C20.9373 35.6761 20.7016 35.6218 20.4569 35.6218C20.4569 33.8996 20.2756 34.7879 21.1729 33.8996C21.1729 33.3649 21.2364 32.8845 21.2907 32.4132C21.4086 32.3497 21.5264 32.2954 21.6442 32.2954C21.5808 31.824 21.5808 31.4071 21.5808 30.9902C21.9343 30.9902 22.2968 30.9902 22.7138 30.9902C22.9494 30.2198 23.5476 29.5037 23.9011 28.7877C23.7833 28.552 23.6654 28.3164 23.5476 28.0717C22.6594 27.6547 21.7621 27.2378 20.8738 26.8209C20.9373 26.703 20.9916 26.5852 21.0551 26.4674C21.2364 26.5308 21.472 26.5852 21.7077 26.6486C22.5415 26.4674 23.2576 26.413 24.2637 27.4191C24.735 27.4191 25.6323 28.3073 25.8136 29.3225C26.584 29.7938 26.2305 34.371 26.2305 35.803C24.9253 34.9692 22.9585 34.0809 22.3693 33.4827C22.1881 33.4827 22.0702 33.5462 21.9524 33.6005C21.9524 33.8996 22.3693 33.8996 22.5506 33.954C22.5506 34.3075 23.2032 34.7879 23.8558 34.7879C23.8558 35.2048 24.454 35.3227 24.8075 35.4405C24.3905 35.5583 23.9736 35.6761 23.6201 35.794C24.1549 35.9752 24.5084 36.4466 25.4601 36.8C25.4601 36.9179 25.4601 37.0357 25.5235 37.1535C24.0371 37.1535 22.5506 37.1535 21.1276 37.1535L21.1095 37.1626ZM27.8892 37.1626C27.6535 36.3922 27.7713 36.1565 27.8257 35.6761C27.5901 35.6127 27.3544 35.5583 27.1097 35.4949C27.1097 33.7093 26.5749 30.1473 27.1097 29.0777C27.1097 29.3134 27.6444 29.3768 27.8257 29.3768C27.7623 28.9599 27.7079 28.543 27.7079 28.1895C27.5266 28.126 27.3544 28.0717 27.2366 28.0082C26.8196 26.6396 27.0553 25.0987 27.0553 24.2649C27.2366 24.1471 27.4088 24.0836 27.5901 24.0292C28.1883 23.0775 28.6596 23.6757 29.1943 22.6062C29.6113 22.9053 30.0826 23.2044 30.563 23.5579C31.0343 23.7936 31.5147 24.0927 32.0494 24.3918C32.0494 23.5579 30.7986 22.9688 30.7442 22.9688C30.8077 22.7875 30.8621 22.6697 30.9799 22.5518C31.6325 22.3706 32.2851 22.2527 33.0011 22.1349C33.2368 21.9536 33.5359 21.8358 33.835 21.718C33.835 22.434 34.0706 23.6757 33.0646 24.1561C33.0011 24.5096 32.9467 24.9265 32.9467 25.3435C33.128 25.2256 33.3002 25.1622 33.5449 25.1078C33.7262 25.9961 33.4815 26.7755 33.844 28.0807C33.4271 28.4977 33.1914 28.1985 33.1914 28.9146C33.3727 28.8511 33.6084 28.7968 33.844 28.7333C33.7806 29.2046 33.7262 29.685 33.7262 30.1563C33.9075 30.8724 33.9075 31.7062 33.0102 32.1141C33.0102 32.3497 33.0102 32.5854 33.0102 32.8845C33.1914 32.8211 33.4271 32.7667 33.6628 32.7032C33.6628 32.8211 33.3637 34.9601 33.844 35.4405C33.4271 35.6218 33.0736 35.8574 32.7111 36.0931C32.3576 35.9118 31.995 35.7396 31.705 35.6218C31.6415 35.6852 31.5872 35.7396 31.5872 35.803C31.9407 35.9843 32.3576 36.22 32.7745 36.4556C33.0736 36.2743 33.3727 36.1021 33.7262 35.9843C33.6628 36.3378 33.6084 36.7003 33.5449 37.1173C31.6415 37.1173 29.7382 37.1173 27.8982 37.1807L27.8892 37.1626ZM23.4932 35.794C23.4932 35.794 23.4932 35.7305 23.5567 35.6761C23.5567 35.6761 23.5567 35.7396 23.4932 35.794ZM31.7594 32.0506C31.6959 31.9872 31.6959 31.9328 31.6959 31.8694C30.6899 31.5703 30.2729 30.9177 29.7925 30.9177C29.7291 30.7998 29.7291 30.682 29.7291 30.6186C30.4995 30.6186 30.8621 30.9721 31.986 31.9237C31.8681 31.9237 31.8047 31.9872 31.7503 32.0416L31.7594 32.0506ZM28.9677 30.0929C28.5508 29.975 28.3152 29.7938 28.0795 29.4403C28.1429 29.4403 29.2125 29.8572 28.9677 30.0929ZM2.99104 29.975C2.99104 29.975 2.99104 29.9116 2.99104 29.8572C2.99104 29.8572 3.05448 29.8572 3.10887 29.8572C3.10887 29.8572 3.10887 29.9207 3.10887 29.975C3.10887 29.975 3.04542 29.975 2.99104 29.975ZM1.38675 28.7877C1.38675 28.7877 1.38675 28.7877 1.38675 28.7242C1.38675 28.7242 1.4502 28.7242 1.50458 28.7242C1.50458 28.7242 1.50458 28.7242 1.50458 28.7877C1.50458 28.7877 1.44114 28.7877 1.38675 28.7877ZM26.1127 28.1895C25.3966 27.6547 25.1066 27.4734 24.6262 27.4191C23.6745 26.4674 22.605 26.4674 22.9041 25.8148C23.1397 25.8148 24.2727 26.2317 24.5084 25.4613C24.8075 25.4613 25.1066 25.4613 25.4601 25.5247C25.6413 25.1713 25.877 24.8087 26.1127 24.4552C26.1761 24.4552 26.2939 24.4552 26.4118 24.4552C26.3483 25.706 26.2939 26.9477 26.2939 28.1985C26.2305 28.1985 26.1761 28.1985 26.1127 28.1985V28.1895ZM18.6804 26.0504C18.4447 25.9326 18.2635 25.8148 18.0822 25.7513C18.1456 25.5701 18.2 25.3978 18.2635 25.28C18.5626 25.5791 18.6804 25.8148 18.6804 26.0504ZM7.68606 25.0987C7.56823 24.6818 7.50478 24.3283 7.4504 23.9658C7.74951 23.9658 8.04861 24.7996 8.10299 24.9719C7.92172 24.9719 7.80389 25.0353 7.68606 25.0897V25.0987ZM8.40209 24.9809C8.33865 24.9175 8.28427 24.8631 8.28427 24.8631C8.34771 24.7996 8.40209 24.7996 8.46554 24.7996C8.40209 24.8631 8.40209 24.9175 8.40209 24.9809ZM21.3633 18.029C21.2998 17.4943 21.2998 16.9595 21.2998 16.4247C21.0642 16.5426 20.8285 16.6604 20.6472 16.7782C20.6472 15.5909 20.6472 14.4035 20.6472 13.2071C20.4116 12.0198 20.7107 11.2493 20.7107 10.2342C20.8285 10.1164 21.0098 10.0529 21.182 9.99854C21.4176 9.46378 21.4176 8.92902 21.4176 8.62991C21.2364 8.62991 21.0642 8.69336 20.9463 8.74774C20.9463 8.81119 20.9463 8.92902 20.9463 9.04684C20.8829 9.04684 20.8285 9.04684 20.765 9.04684C20.7016 8.27643 20.7016 7.49694 20.7016 6.72652C22.2515 6.72652 24.4449 6.37304 26.2305 6.78997C26.2939 6.85342 26.584 7.92294 27.1822 7.62384C27.1822 7.32473 27.2456 7.02563 27.3 6.78997C28.1339 6.72652 28.9677 6.72652 29.856 6.72652C29.9738 6.84435 30.1551 7.02563 30.3273 7.19784C30.9255 7.55133 31.5781 7.91388 32.2307 8.33081C32.7654 7.79605 32.3485 7.97732 33.2368 7.79605C33.1733 8.26736 33.1733 8.74774 33.1733 9.21906C33.3546 9.15561 33.5903 9.10123 33.8259 9.03778C33.8259 9.33688 33.8259 9.63599 33.8259 9.98947C33.3546 10.0529 31.986 10.8777 31.8681 11.1768C31.0343 11.5303 30.2004 11.8929 29.3756 12.3098C29.0765 12.5455 28.4239 13.4971 27.9526 13.4971C27.6535 13.615 27.4178 13.7328 27.1822 13.9141C27.1822 13.4428 27.0644 12.9624 27.3635 12.9624C27.3635 13.0802 27.3635 13.198 27.3635 13.3159C27.4813 13.2524 27.6626 13.198 27.8348 13.198C27.8348 12.8989 27.8348 12.5998 27.8982 12.3098C26.9465 11.775 27.3 11.4215 27.3635 11.059C27.1278 10.1073 27.01 10.2886 26.5296 9.92603C26.4661 10.6421 26.4661 11.4125 26.4661 12.1829C26.0492 11.9472 25.6323 11.766 25.2788 11.5847C25.2153 11.6481 25.2153 11.7025 25.2153 11.766C25.7501 12.1829 25.6867 12.3007 25.8679 13.1346C26.2849 13.4337 26.5205 13.9685 26.4027 14.7389C25.451 15.5093 23.7289 16.7601 23.1941 17.4761C22.9585 17.7118 22.4781 17.594 22.1881 17.5396C21.889 17.6574 21.5898 17.8387 21.3542 18.0109L21.3633 18.029ZM19.4055 17.7299C19.2877 17.6665 19.1698 17.6665 19.1064 17.6665C19.1064 17.603 19.1064 17.5486 19.1064 17.4852C17.5021 17.4217 15.8978 17.3674 14.2935 17.3674C14.1757 16.4157 14.0579 15.464 13.9944 14.5757C14.2301 14.4579 14.5292 14.3401 14.8283 14.2766C14.8283 13.9231 14.8283 13.5606 14.8283 13.2071C14.5926 13.2706 14.4114 13.3249 14.2301 13.3884C14.2301 13.4518 14.2301 13.5062 14.2301 13.5697C13.8766 13.6331 13.5775 13.7509 13.2784 13.8688C13.2149 14.5213 13.1606 15.1739 13.1606 15.8265C13.0427 15.8265 12.9793 15.8265 12.9249 15.8265C12.7436 15.4096 12.6258 14.9927 12.508 14.6392C12.1545 14.6392 11.7919 12.6814 11.7919 12.6814C11.4928 12.2101 11.1937 11.7297 10.9581 11.3128C10.242 9.52722 8.33865 8.82025 7.98516 7.75073C7.86733 7.75073 7.80389 7.75073 7.74951 7.75073C7.74951 6.61776 5.90956 6.49993 8.81903 6.79903C9.53506 7.15252 10.242 7.56945 10.9581 7.98639C11.0215 8.10421 11.0759 8.22204 11.1393 8.40332C11.375 8.40332 11.6107 8.40332 11.8554 8.40332C12.9884 7.56945 12.6258 7.51507 13.0427 9.35501C13.1606 9.29156 13.2784 9.23718 13.4597 9.17374C13.4597 9.23718 13.5231 9.35501 13.5775 9.47284C13.7588 9.40939 13.931 9.40939 14.1123 9.40939C14.1123 8.52115 14.1123 7.62384 14.1757 6.73559C15.78 6.73559 17.4477 6.73559 19.1064 6.73559C19.1698 7.15252 19.2242 7.56945 19.342 8.04077C19.5233 8.04077 19.6955 8.10421 19.9402 8.1586C19.8768 9.29156 19.8224 10.4155 19.8224 11.5484C19.5868 11.6663 19.4055 11.7841 19.2242 11.9654C19.1608 12.2645 19.1608 12.618 19.1608 12.9714C19.3964 12.7902 19.6321 12.618 19.9312 12.5001C19.8677 14.2222 19.8134 15.9444 19.7499 17.7299C19.6321 17.7299 19.5143 17.7299 19.3964 17.7299H19.4055ZM24.8709 11.5484C24.8075 11.485 24.7531 11.4306 24.6897 11.4306C24.7531 11.3672 24.8075 11.3672 24.9253 11.3672C24.8619 11.4306 24.8619 11.485 24.8619 11.5484H24.8709ZM24.5174 11.3672C24.3996 11.1859 24.2818 11.0137 24.164 10.8958C24.2818 10.8958 24.3996 10.9593 24.5174 11.0137C24.5174 11.1315 24.5174 11.2493 24.5174 11.3672ZM23.8014 10.769C23.8014 10.769 23.8014 10.7055 23.8014 10.6511C23.8014 10.6511 23.8014 10.7146 23.8014 10.769ZM23.5657 10.7055C23.4479 10.5877 23.3301 10.4699 23.2666 10.4064C23.3301 10.4064 23.4479 10.4064 23.5657 10.4699C23.5657 10.5333 23.5657 10.5877 23.5657 10.7055ZM22.9675 10.2886C22.9675 10.2251 22.9675 10.1707 22.9675 10.1073C22.9675 10.1073 22.9675 10.1073 23.031 10.1073C23.031 10.1707 23.031 10.2251 23.031 10.2886C23.031 10.2886 23.031 10.2886 22.9675 10.2886ZM22.8497 10.1073C22.7319 10.0439 22.6141 9.98947 22.5506 9.98947C22.5506 9.87164 22.5506 9.8082 22.5506 9.75382C22.6141 9.87164 22.7319 9.98947 22.8497 10.1073ZM19.1608 8.14953C19.2242 8.08609 19.2242 8.08609 19.1608 8.14953V8.14953Z" fill="#0C5C2F"/>
<path fill-rule="evenodd" clip-rule="evenodd" d="M16.0882 18.7541C16.2241 18.8085 16.2876 18.9535 16.2422 19.0895C16.1879 19.2254 16.0428 19.2889 15.9069 19.2436C15.7709 19.1892 15.7075 19.0442 15.7528 18.9082C15.8072 18.7722 15.9522 18.7088 16.0882 18.7541ZM17.3752 19.4339C17.5112 19.4883 17.5746 19.6333 17.5293 19.7693C17.4749 19.9052 17.3299 19.9687 17.1939 19.9233C17.058 19.869 16.9945 19.7239 17.0398 19.588C17.0942 19.452 17.2393 19.3886 17.3752 19.4339ZM21.6442 18.3281C22.5597 18.2828 23.3845 17.9203 24.1277 17.2495C26.1308 15.4096 28.5417 13.5968 30.3817 12.5001C34.8229 9.84445 37.1251 8.4577 38.7385 6.97125C39.672 6.11019 40.5059 5.57543 39.5089 7.09814C39.1373 7.84137 38.4394 8.72961 37.823 9.37314C36.5088 10.7508 35.3939 11.4306 33.9075 12.4729C33.4362 12.8083 33.6356 12.9624 34.116 12.6633C35.0948 12.0651 36.3094 11.2765 36.9166 10.9049C37.7143 10.4155 38.3034 9.86258 38.9469 9.36408C39.8805 8.62991 39.6992 9.16467 39.4001 9.65412C38.1131 11.8294 35.3939 13.6875 34.7232 13.8325C34.7051 13.8416 34.1794 14.3582 34.8592 14.0228C35.684 13.624 36.3728 13.0711 37.1704 12.618C38.5209 11.8657 38.7294 12.192 37.542 13.2434C36.5904 14.0591 35.5299 14.8023 34.3969 15.5093C35.122 15.2102 35.8653 14.9383 36.5632 14.6029C38.0315 13.8959 37.5602 14.7479 36.5632 15.6362C35.7293 16.3794 34.6145 16.8326 33.3183 17.2767C32.9286 17.4036 32.9286 17.5577 33.3455 17.5396C34.0706 17.4943 34.7232 17.2677 35.4483 17.1498C35.9287 17.0773 36.3547 17.2314 35.4483 17.8296C34.7323 18.3009 33.8712 18.5547 33.0464 18.8176C32.1854 19.0985 32.1944 19.1257 33.0102 19.0714C33.3093 19.0532 33.5449 19.0351 33.844 19.026C34.125 19.026 34.2519 19.1711 34.0434 19.3342C32.9195 20.2496 32.3848 20.1318 31.6053 20.3856C31.415 20.449 31.3062 20.5669 31.5418 20.6303C32.0494 20.7753 32.6204 20.7391 33.1461 20.9113C33.4362 21.0019 33.3818 21.1379 33.0827 21.3464C32.566 21.7089 31.7412 21.7814 30.9799 21.8086C30.6355 21.8267 30.5176 21.9899 30.8439 22.144C30.7986 22.3977 29.3122 21.9627 28.3786 21.8358C27.7985 21.7542 27.7804 21.8902 28.3423 22.1712C28.9677 22.4884 28.8952 22.9778 28.1067 22.8781C27.6082 22.8147 27.1097 22.7512 26.6021 22.6968C26.8015 22.8963 26.9737 23.1138 27.2003 23.286C27.4903 23.5035 27.4088 23.712 26.8378 23.8389C26.2033 23.9839 25.4782 23.6304 24.7712 23.3132C24.6534 23.5851 24.9978 23.6848 25.3422 24.1199C25.8861 24.8087 25.4782 25.1441 24.3724 24.7362C24.0914 24.6365 23.7651 24.419 23.3754 24.2739C23.2666 24.2286 23.4298 24.5005 23.5114 24.5821C23.6654 24.7362 23.9192 24.7815 24.0461 24.9537C24.2274 25.1894 24.2183 25.4069 23.7833 25.3525C23.2576 25.2891 22.6412 25.1441 22.0793 24.8268C21.6805 24.6002 21.5989 24.6184 21.8436 24.9537C22.0158 25.1803 22.3693 25.2891 22.4056 25.561C22.5053 26.3042 22.2152 26.1683 21.8074 26.0686C21.4176 25.9689 21.0642 25.7332 20.7107 25.4522C20.3209 25.1441 20.185 25.2619 20.5113 25.697C21.1548 26.5671 20.3572 26.8571 19.7137 26.132C19.2423 25.5972 18.8889 24.9809 18.5444 24.3102C18.3178 23.8661 18.1094 23.9023 18.0097 24.3374C17.9462 24.6456 17.9462 24.99 17.774 25.2619C17.484 25.7423 17.5655 26.0232 18.2453 26.3133C19.7318 26.9477 21.2364 27.5188 22.7138 28.1351C23.9192 28.6427 23.5023 29.5853 22.8678 29.3134C22.7047 29.2409 22.46 29.1865 22.2878 29.2318C22.2424 29.2409 22.2334 29.3225 22.2515 29.3587C22.7228 30.0385 22.8316 30.4735 22.605 30.5279C22.1609 30.6367 21.7349 30.682 21.3179 30.5279C20.9826 30.401 20.765 30.0929 20.4478 29.9388C20.2212 29.83 19.8224 29.6759 20.2122 30.1201C20.5656 30.5279 21.0188 30.8905 21.2092 31.389C21.4992 32.1503 21.0188 32.5582 20.1397 32.096C19.7137 31.8694 19.3602 31.5431 18.9704 31.2621C19.1245 31.67 19.3511 32.0688 19.4417 32.4948C19.6049 33.2924 19.1698 33.4918 18.4085 33.0205C18.1728 32.8754 17.8103 32.2682 17.7378 32.522C17.5927 33.0205 17.9825 33.5371 17.9009 34.0356C17.8284 34.516 17.2574 34.6247 16.922 34.2169C16.6864 33.9268 16.4779 33.6096 16.3329 33.3014C16.2785 33.1927 16.1879 32.7757 16.1697 33.4646C16.1516 33.954 16.1516 34.2894 15.9975 34.6519C15.6531 35.4677 15.2271 35.4949 14.8645 34.7244C14.6108 34.1897 14.4929 33.6187 14.3298 33.0567C14.2573 32.8211 14.2573 32.8301 14.221 33.0748C14.1213 33.7818 13.9763 34.4525 13.5866 34.9238C13.2149 35.377 12.8433 35.1595 12.653 34.6157C12.4627 34.09 12.508 33.4374 12.5624 32.6942C12.6077 32.0778 12.0276 33.7546 11.5472 34.1806C10.8221 34.8423 10.2239 34.525 10.3508 33.5915C10.4233 33.0477 10.7224 32.5491 10.8221 32.0144C10.8312 31.9509 10.668 31.9963 10.6227 32.0416L9.68008 32.9842C9.05468 33.6096 8.39303 33.2199 8.95498 32.0053C9.03656 31.8331 9.18158 31.67 9.19064 31.4796C9.19064 31.4162 9.05468 31.4252 8.99124 31.4524C8.73745 31.5521 8.56524 31.7606 8.33865 31.8966C7.52291 32.386 7.08785 31.7243 7.42321 30.9267C7.52291 30.6911 7.68606 30.4917 7.82202 30.2741C7.48666 30.3285 7.14223 30.537 6.825 30.4282C6.36275 30.2741 5.85518 29.9932 6.61654 29.3225C6.71624 29.2499 6.79781 29.114 6.89751 29.0415C6.49871 29.123 6.07271 29.1956 5.69203 29.0687C5.03038 28.8511 5.10289 28.4161 5.83705 28.0626C5.13008 28.0173 4.47749 27.4009 5.29323 27.0021C5.53795 26.8843 5.49263 26.8027 5.39293 26.694C5.02132 26.277 5.09383 25.7785 5.86425 25.6788C7.44134 25.4613 9.04562 25.3888 10.6318 25.2438C11.3116 25.1803 11.7919 25.0172 11.6741 24.138C11.6288 23.7754 11.7376 23.4401 11.7647 23.0775C11.4113 23.5579 11.094 23.9748 10.5683 24.419C9.98825 24.9084 9.60757 24.854 9.76166 24.1652C9.81604 23.9295 9.87042 23.712 9.8251 23.4854C9.526 23.712 9.24502 23.9658 8.92779 24.1652C8.49273 24.4371 8.18456 24.4099 8.29333 23.857C8.35678 23.5307 8.42929 23.1954 8.49273 22.8691C8.20269 23.0594 7.90359 23.2044 7.55917 23.3041C6.66186 23.5488 6.71624 23.1682 7.18755 22.4703C7.39602 22.1621 7.71325 22.0986 7.98516 21.9174C8.32959 21.6908 8.18456 21.5095 7.88546 21.582C7.27819 21.727 6.71624 21.6183 6.04552 21.5639C5.31136 21.5004 4.976 20.9475 5.65578 20.5941C5.8008 20.5216 5.85518 20.3493 5.95488 20.2224C5.56514 20.2315 5.1754 20.2043 4.78566 20.2496C4.4503 20.2859 3.8249 19.5064 4.4503 19.2617C4.67689 19.1711 4.80379 18.9354 5.02132 18.8266C5.41106 18.6454 5.41106 18.6182 4.95787 18.5819C4.41405 18.5366 3.80677 18.446 3.3264 18.1197C3.02729 17.9203 2.77351 16.9323 3.58924 16.8235C4.0243 16.7692 4.41405 16.7601 4.82191 16.9142C5.0757 16.8417 5.09383 16.7692 4.85817 16.6966C3.96086 16.2344 2.91853 15.9534 2.15717 15.3099C0.987949 14.3219 1.16922 13.6784 1.96683 13.9866C2.96385 14.3673 3.57112 14.3763 4.60438 14.4851C3.34452 13.8234 2.01215 13.1618 1.28705 11.9472C0.915439 11.3128 1.27799 11.2493 1.81275 11.4941C2.23875 11.6844 2.75538 12.0923 3.48954 12.482C3.87928 12.6814 4.03337 12.4186 3.68895 12.192C2.84602 11.6391 1.98496 10.8324 1.2508 9.69037C0.987949 9.2825 0.716036 8.86557 0.516634 8.42145C0.181275 7.68728 0.480379 7.48788 1.08765 8.04983C1.94871 8.85651 2.80976 9.56348 3.7252 10.2704C3.63456 10.1073 3.54393 9.94416 3.46235 9.77194C2.26594 9.19186 1.57709 8.27643 0.489442 6.55431C0.380677 6.3821 0.416932 6.07393 0.425996 5.8836C0.833865 5.90172 1.18735 6.46368 1.849 7.08907C2.3747 7.57852 3.54393 8.62991 4.39592 9.25531C1.86713 6.79903 0.58008 5.08599 0.425996 3.9077C0.29004 2.90162 0.498506 2.96507 1.06046 3.81706C1.93058 5.14037 3.28108 6.14644 4.41405 7.28848C5.57421 8.46676 5.22978 7.82324 4.76753 6.88061C3.89741 5.10411 2.78257 3.32762 2.67381 1.37891C2.6013 0.0737319 3.18138 1.07074 3.28108 1.31547C3.67988 2.28529 4.2509 3.20979 4.84004 4.09804C6.26305 6.25521 7.78576 8.33987 9.73447 10.2704C10.804 11.3309 11.3659 12.8355 11.8282 14.4579C12.3176 16.1347 13.1515 17.2223 14.357 17.6665C14.3751 17.7934 14.3751 17.9203 14.357 18.0471L14.3298 18.3009L14.3479 18.4731L14.3932 18.6182L14.4567 18.736L14.5292 18.8266L14.638 18.9445L14.6923 19.026L14.7105 19.1167C14.7195 19.2798 14.6742 19.4339 14.6289 19.597C14.6017 19.7149 14.5745 19.8236 14.5564 19.9415L14.5292 20.2043V20.3493L14.5473 20.7753C14.7558 20.7028 14.9733 20.6484 15.1727 20.5578C15.2271 20.6484 15.2634 20.7481 15.2996 20.8478C15.3721 21.0835 15.3993 21.3101 15.4356 21.5548L15.5171 22.1077L15.8797 21.8267C16.1425 21.6092 16.3963 21.3554 16.6954 21.1832C16.7226 21.3373 16.7498 21.4914 16.777 21.6455L17.1395 21.4823L17.2483 21.4189L17.3571 21.3464L17.4658 21.2648L17.5655 21.1651L17.6652 21.0563L17.7559 20.9385L17.9009 20.7028C17.9553 20.6122 18.0006 20.5306 18.0641 20.449L18.1275 20.3856L18.2 20.3312L18.2906 20.2768L18.5354 20.1953L18.6713 20.1409L18.8163 20.0684L18.9614 19.9777L19.1064 19.8599L19.2423 19.7239L19.3692 19.5608C19.4417 19.443 19.5052 19.3251 19.5777 19.2164L19.7046 19.0442C19.7771 18.9535 19.8496 18.8719 19.9312 18.7904L20.1125 18.6363L20.3028 18.5094L20.4025 18.455L20.5022 18.4188L20.611 18.3916L20.7197 18.3734L20.8376 18.3644H21.0551V18.3009C21.2454 18.31 21.4539 18.31 21.6624 18.2919L21.6442 18.3281ZM14.8011 17.8206C15.8434 18.0471 16.6682 17.7118 17.5837 17.8115C18.3813 17.8931 19.1245 18.1106 19.9584 18.2375L19.8405 18.3191L19.7318 18.4097L19.5324 18.6C19.4145 18.7269 19.3148 18.8629 19.2151 18.9988C19.1426 19.1076 19.0792 19.2254 19.0067 19.3342L18.907 19.4611L18.8073 19.5608L18.6985 19.6424L18.5897 19.7058L18.49 19.7602C18.3632 19.8146 18.2363 19.8508 18.1094 19.8962L17.9553 19.9777L17.8284 20.0774L17.7287 20.1862L17.6471 20.295C17.5655 20.4309 17.484 20.5759 17.3933 20.7028L17.3208 20.8025L17.2483 20.8841L17.1033 21.011C17.0761 20.866 17.0489 20.73 17.0217 20.585L16.6954 20.7119C16.6229 20.6122 16.5685 20.4944 16.5685 20.3493C16.5595 20.1499 16.5957 19.9052 16.2966 19.7964C16.0882 19.7239 15.9069 19.8599 15.7709 20.0684C15.6893 20.1953 15.5896 20.2496 15.499 20.2768L15.4809 20.2496L15.2724 19.9868L15.073 20.1499C15.0458 20.1681 15.0186 20.1862 14.9824 20.1953C15.0005 20.0412 15.0368 19.8871 15.073 19.7421C15.1002 19.6424 15.1183 19.5427 15.1455 19.4339L15.1727 19.2254V19.1167L15.1546 19.0079L15.1183 18.8991L15.064 18.7904L15.0005 18.6997C14.9461 18.6454 14.8917 18.591 14.8464 18.5275L14.8192 18.4822L14.8011 18.4278L14.792 18.3463C14.8011 18.2284 14.8192 18.1106 14.8283 17.9928C14.8283 17.9384 14.8283 17.8931 14.8283 17.8387L14.8011 17.8206Z" fill="black"/>
<path fill-rule="evenodd" clip-rule="evenodd" d="M269.429 14.3673C269.429 13.5697 269.148 12.8717 268.577 12.2917C267.979 11.6753 267.245 11.3762 266.375 11.3762C265.523 11.3762 264.806 11.6753 264.208 12.2735C263.61 12.8717 263.32 13.5606 263.32 14.3582C263.32 15.1739 263.628 15.8718 264.235 16.461C264.852 17.0501 265.577 17.3402 266.42 17.3402C267.199 17.3402 267.888 17.0683 268.486 16.5244C269.121 15.9444 269.438 15.2374 269.438 14.3854L269.429 14.3673ZM262.785 14.2041C262.785 13.8144 262.894 13.3884 263.103 12.9261C263.365 12.337 263.737 11.8657 264.208 11.5122C264.806 11.0681 265.532 10.8415 266.375 10.8415C267.471 10.8415 268.369 11.2312 269.066 12.0107C269.683 12.6995 270 13.4518 270 14.2766C270 15.1286 269.773 15.8447 269.311 16.4429C268.94 16.9142 268.45 17.2858 267.825 17.5396C267.326 17.748 266.855 17.8568 266.411 17.8568C265.432 17.8568 264.607 17.5486 263.927 16.9414C263.166 16.2616 262.785 15.3461 262.785 14.2041ZM265.586 12.5726V14.0954H266.701C266.991 14.0954 267.199 14.0138 267.344 13.8597C267.489 13.7056 267.562 13.4971 267.562 13.2524C267.562 13.0621 267.498 12.8989 267.372 12.7811C267.227 12.6452 267.027 12.5726 266.764 12.5726H265.586ZM265.051 12.1013H266.637C267.091 12.1013 267.444 12.201 267.707 12.4004C267.961 12.5998 268.097 12.8899 268.097 13.2706C268.097 13.5334 268.024 13.7691 267.879 13.9866C267.734 14.1951 267.544 14.3401 267.29 14.4216L268.142 16.4066H267.58L266.773 14.5395H265.586V16.4066H265.051V12.1013Z" fill="#0C5C2F"/>
<path fill-rule="evenodd" clip-rule="evenodd" d="M210.297 11.34H215.772L220.004 18.0834L224.509 11.34H230.011L222.687 22.0805L230.31 33.7909L224.863 33.7818L219.95 26.0232L214.756 33.7728L209.373 33.7818L217.204 22.0261L210.288 11.3309L210.297 11.34ZM208.802 11.34V15.3733H199.212V19.5336H208.548V23.567H199.212V29.7666H208.802V33.7999H194.463V11.349H208.802V11.34ZM182.209 15.319V21.1288C182.852 21.1469 183.523 21.0926 184.166 21.0019L184.701 20.9113C185.399 20.7481 186.015 20.5487 186.568 20.1227C186.822 19.9052 186.985 19.6967 187.148 19.4158C187.447 18.7722 187.529 18.0381 187.375 17.3583C187.266 16.9867 187.103 16.7148 186.813 16.4338C185.916 15.6815 184.601 15.4459 183.423 15.3461C183.024 15.328 182.625 15.319 182.218 15.319H182.209ZM182.054 11.34L182.97 11.349C184.266 11.3944 185.526 11.5031 186.786 11.7841C187.094 11.8657 187.393 11.9472 187.692 12.0469C188.118 12.201 188.499 12.3823 188.907 12.5908L189.333 12.8446L189.731 13.1255L190.103 13.4337L190.438 13.7691L190.747 14.1225L191.019 14.5032L191.254 14.902L191.463 15.319L191.635 15.754L191.88 16.6785L191.997 17.6755V18.6272C191.961 19.0442 191.907 19.4339 191.825 19.8508L191.59 20.6122L191.254 21.3282L190.828 21.9989L190.302 22.6062L189.686 23.1591C189.36 23.4038 189.043 23.6214 188.689 23.8208C188.39 23.9839 188.091 24.1289 187.774 24.2649C187.23 24.4824 186.704 24.6546 186.133 24.7906C185.662 24.8903 185.2 24.9628 184.719 25.0081C183.876 25.0716 183.042 25.0534 182.199 25.0534V33.7637H177.387L177.45 11.3128H182.045L182.054 11.34ZM161.96 10.9049C162.731 10.923 163.465 10.9956 164.226 11.1134C164.534 11.1678 164.842 11.2312 165.151 11.3037C166.075 11.5394 166.927 11.8385 167.779 12.2373C168.341 12.5183 168.867 12.8174 169.392 13.1618L169.9 13.5243C170.834 14.2313 171.64 14.9927 172.374 15.8718C172.556 16.1075 172.737 16.3432 172.909 16.5879C173.399 17.3311 173.788 18.0653 174.096 18.881C174.187 19.1529 174.278 19.4248 174.359 19.6967C174.604 20.6575 174.722 21.5911 174.731 22.57C174.722 23.2588 174.667 23.9295 174.55 24.6093C174.441 25.1713 174.287 25.7151 174.096 26.2589C173.924 26.703 173.734 27.1381 173.507 27.5641C173.172 28.1623 172.8 28.7152 172.374 29.2681L171.985 29.7303C171.142 30.6548 170.208 31.4434 169.13 32.1503C168.604 32.4766 168.069 32.7667 167.498 33.0295C166.827 33.3196 166.166 33.5552 165.45 33.7546C165.141 33.8362 164.842 33.8996 164.525 33.9631C163.447 34.1625 162.386 34.2441 161.289 34.2259C160.637 34.2078 160.002 34.1534 159.35 34.0628C158.616 33.945 157.918 33.7818 157.211 33.5733C156.712 33.4102 156.241 33.2289 155.77 33.0205C155.008 32.667 154.31 32.2591 153.631 31.7969C153.114 31.4252 152.634 31.0355 152.162 30.6095C151.555 30.0385 151.029 29.4493 150.54 28.7968C150.195 28.3164 149.905 27.8269 149.633 27.3103C149.38 26.7846 149.171 26.268 148.999 25.7241C148.836 25.1622 148.718 24.6184 148.636 24.0383L148.573 23.4582C148.5 22.2709 148.573 21.1379 148.845 19.9687C148.99 19.4158 149.162 18.881 149.38 18.3463C149.615 17.8206 149.878 17.322 150.186 16.8235C150.567 16.2435 150.984 15.7087 151.464 15.183C151.972 14.6573 152.498 14.1679 153.078 13.7056C153.576 13.3249 154.075 12.9896 154.618 12.6633C155.253 12.3098 155.887 12.0107 156.576 11.7478C157.066 11.5756 157.555 11.4215 158.072 11.2947C158.806 11.1315 159.531 11.0137 160.283 10.9412C160.836 10.9049 161.38 10.8868 161.942 10.8958L161.96 10.9049ZM161.407 14.9292C160.764 14.9473 160.156 15.0108 159.54 15.1467C158.878 15.3008 158.289 15.5093 157.682 15.7903L157.338 15.9715C156.25 16.5879 155.362 17.3764 154.637 18.3281C154.301 18.7904 154.029 19.2617 153.812 19.7783L153.676 20.1227C153.259 21.3645 153.177 22.6243 153.395 23.9023C153.513 24.5096 153.694 25.0716 153.966 25.6335L154.138 25.9598C154.918 27.3012 156.096 28.4161 157.546 29.1956C158.135 29.4947 158.724 29.7122 159.368 29.8844L159.758 29.975C161.072 30.2198 162.386 30.2107 163.7 29.9388C163.963 29.8753 164.208 29.8119 164.462 29.7303C165.441 29.404 166.265 28.9508 167.054 28.3436C167.643 27.8632 168.151 27.3556 168.604 26.7755C168.749 26.5671 168.894 26.3677 169.021 26.1501C169.465 25.3707 169.746 24.6002 169.882 23.7392C170.009 22.8328 169.991 21.9446 169.818 21.0382C169.682 20.4309 169.483 19.869 169.202 19.307C168.894 18.7451 168.54 18.2375 168.105 17.748C167.552 17.1498 166.945 16.6332 166.238 16.18C165.676 15.8356 165.105 15.5727 164.471 15.3552C163.818 15.1558 163.175 15.0289 162.495 14.9655C162.132 14.9383 161.779 14.9292 161.416 14.9292H161.407ZM141.268 11.34V29.7575H148.328V33.7909H136.518V11.34H141.268ZM118.771 29.7575H119.895C121.055 29.7303 122.161 29.6216 123.285 29.3587C123.512 29.3043 123.729 29.2409 123.947 29.1684C124.98 28.833 125.859 28.3798 126.666 27.7182C127.137 27.3194 127.527 26.8934 127.871 26.4039C128.207 25.8964 128.442 25.3888 128.633 24.8178C129.05 23.4129 129.068 21.8992 128.714 20.4853C128.551 19.8962 128.325 19.3614 127.998 18.8357C127.871 18.6363 127.726 18.446 127.581 18.2647C127.001 17.5849 126.321 17.0683 125.506 16.6241C125.261 16.4972 125.007 16.3794 124.753 16.2707C123.72 15.8537 122.66 15.6271 121.545 15.4821C120.992 15.4187 120.439 15.3824 119.886 15.3643C119.515 15.3552 119.143 15.3552 118.771 15.3552V29.7575ZM119.786 11.34C120.648 11.349 121.5 11.3853 122.361 11.485C123.376 11.6028 124.346 11.7932 125.324 12.0651C126.068 12.2826 126.775 12.5455 127.482 12.8536C127.998 13.0893 128.488 13.3521 128.968 13.6422C129.548 14.0047 130.083 14.3945 130.6 14.8295C130.844 15.047 131.071 15.2736 131.297 15.5093C131.805 16.0712 132.222 16.6423 132.594 17.2858C132.793 17.6574 132.965 18.029 133.119 18.4188C133.346 19.0351 133.5 19.6333 133.627 20.2678L133.717 20.9204C133.817 21.9627 133.808 22.9688 133.681 24.0111C133.6 24.564 133.491 25.0897 133.346 25.6335C133.137 26.3223 132.884 26.9749 132.548 27.6275C132.249 28.1804 131.905 28.6971 131.515 29.1956C131.152 29.6306 130.772 30.0385 130.355 30.4373C130.029 30.7273 129.702 30.9902 129.349 31.253C128.805 31.6337 128.252 31.96 127.645 32.2682C127.019 32.5673 126.394 32.812 125.732 33.0205C125.034 33.2289 124.337 33.3921 123.62 33.519C122.85 33.6368 122.089 33.7184 121.309 33.7637C120.901 33.7818 120.493 33.7909 120.086 33.7909H114.04V11.34H119.805H119.786ZM105.457 25.4794V11.34H110.27V35.8755L92.7312 19.4973V33.7818H88.009V9.06497L105.457 25.4794ZM71.7214 24.5459H77.1234L74.4043 19.026L71.7214 24.5459ZM86.9757 33.7818L81.7822 33.7909L79.1447 28.5792H69.7093L67.0808 33.7999L61.8782 33.7909L74.4134 9.27344L86.9848 33.7909L86.9757 33.7818ZM46.7418 11.3309V19.6877H55.9868V11.3309H60.709V33.7818H55.9868V23.7754H46.7418V33.7818H41.9923V11.3309H46.7418Z" fill="#0C5C2F"/>
<path d="M246.969 24.7271C246.869 24.5912 246.77 24.4733 246.67 24.3736C246.57 24.2739 246.471 24.1833 246.371 24.1199C246.153 23.9839 245.954 23.8933 245.764 23.857C245.573 23.8208 245.392 23.7936 245.229 23.7936C244.649 23.7936 244.186 23.9386 243.824 24.2377C243.47 24.5368 243.289 24.8631 243.289 25.2256C243.289 25.2619 243.289 25.2981 243.298 25.3253C243.307 25.3616 243.307 25.3978 243.307 25.425C243.362 25.6154 243.47 25.8057 243.643 25.9961C243.815 26.1864 244.06 26.3405 244.377 26.4674C244.549 26.5489 244.812 26.6486 245.165 26.7846C245.519 26.9115 245.881 27.0746 246.253 27.2559C246.688 27.4644 247.105 27.691 247.495 27.9538C247.884 28.2167 248.138 28.4977 248.265 28.8058C248.292 28.8874 248.31 28.969 248.329 29.0505C248.347 29.1321 248.365 29.2137 248.392 29.2953C248.419 29.4131 248.437 29.5219 248.446 29.6397C248.455 29.7575 248.465 29.8572 248.465 29.966C248.465 30.8361 248.129 31.6065 247.458 32.2682C246.788 32.9298 245.972 33.2652 245.002 33.2652H244.848C243.969 33.2652 243.18 32.9751 242.473 32.3951C241.766 31.815 241.422 31.1624 241.422 30.4192L242.718 30.0747C242.827 30.7545 243.099 31.2621 243.507 31.5884C243.924 31.9147 244.368 32.0869 244.839 32.096C244.848 32.096 244.866 32.096 244.875 32.096C244.884 32.096 244.902 32.096 244.912 32.096C244.948 32.096 244.984 32.096 245.011 32.096C245.038 32.096 245.075 32.0869 245.111 32.0778C245.537 32.0416 245.936 31.8784 246.316 31.5884C246.697 31.2983 246.942 30.9086 247.069 30.401C247.078 30.3285 247.087 30.2651 247.087 30.1926C247.087 30.1201 247.087 30.0657 247.087 30.0022C247.087 29.5128 246.897 29.123 246.516 28.8149C246.135 28.5158 245.709 28.2711 245.247 28.0717C245.183 28.0445 245.12 28.0263 245.048 27.9991C244.975 27.972 244.902 27.9448 244.83 27.9266C244.794 27.9176 244.748 27.8994 244.703 27.8813C244.658 27.8632 244.622 27.8541 244.576 27.836C243.896 27.5822 243.28 27.274 242.709 26.9115C242.147 26.5399 241.866 25.9598 241.866 25.1531C241.866 25.0081 241.893 24.845 241.948 24.6637C242.002 24.4824 242.084 24.2921 242.183 24.1017C242.41 23.7301 242.745 23.3766 243.199 23.0594C243.652 22.7422 244.232 22.579 244.948 22.579C245.537 22.579 246.026 22.6425 246.407 22.7694C246.788 22.8963 247.159 23.1138 247.504 23.431C247.603 23.5217 247.703 23.6214 247.803 23.7301C247.903 23.8389 248.002 23.9567 248.102 24.0927L246.915 24.709L246.969 24.7271ZM251.238 31.67C251.465 31.7153 251.637 31.7969 251.755 31.9056C251.873 32.0234 251.963 32.1322 252.008 32.25C252.036 32.2954 252.054 32.3407 252.054 32.386C252.063 32.4313 252.063 32.4766 252.063 32.522C252.008 32.7395 251.918 32.9117 251.791 33.0477C251.655 33.1836 251.474 33.2561 251.238 33.2561C250.948 33.2561 250.73 33.1745 250.585 33.0205C250.44 32.8573 250.368 32.676 250.368 32.4766C250.368 32.2863 250.44 32.105 250.585 31.9419C250.73 31.7787 250.948 31.6972 251.238 31.6972V31.67ZM258.915 22.3796L264.335 33.0386H262.812L261.516 30.5007H256.432L255.135 33.0386H253.613L258.924 22.3796H258.915ZM258.915 25.2528L256.903 29.3043H260.909L258.915 25.2528ZM266.574 31.67C266.801 31.7153 266.973 31.7969 267.091 31.9056C267.208 32.0234 267.29 32.1322 267.344 32.25C267.372 32.2954 267.39 32.3407 267.39 32.386C267.399 32.4313 267.399 32.4766 267.399 32.522C267.344 32.7395 267.254 32.9117 267.127 33.0477C266.991 33.1836 266.81 33.2561 266.574 33.2561C266.284 33.2561 266.066 33.1745 265.921 33.0205C265.776 32.8573 265.704 32.676 265.704 32.4766C265.704 32.2863 265.776 32.105 265.921 31.9419C266.066 31.7787 266.284 31.6972 266.574 31.6972V31.67Z" fill="#0C5C2F"/>
</svg>
